<?xml version="1.0" standalone="no"?>
<!DOCTYPE svg PUBLIC "-//W3C//DTD SVG 20010904//EN"
 "http://www.w3.org/TR/2001/REC-SVG-20010904/DTD/svg10.dtd">
<svg version="1.0" xmlns="http://www.w3.org/2000/svg"
 width="371.000000pt" height="97.000000pt" viewBox="0 0 371.000000 97.000000"
 preserveAspectRatio="xMidYMid meet">

<g transform="translate(0.000000,97.000000) scale(0.100000,-0.100000)"
fill="#000000" stroke="none">
<path d="M275 890 c-29 -42 -98 -109 -130 -127 -18 -10 -18 -12 3 -60 12 -28
26 -70 31 -94 10 -42 8 -46 -40 -122 -28 -43 -49 -80 -47 -82 1 -2 23 -7 48
-12 l45 -9 6 -59 c7 -74 28 -115 87 -172 45 -45 185 -133 210 -133 22 0 105
46 169 94 70 53 121 122 129 177 4 25 13 39 25 42 28 7 35 36 16 69 l-16 28
61 65 61 66 -23 24 c-13 14 -28 25 -34 25 -6 0 -28 -17 -49 -37 l-39 -38 7 45
c4 25 18 74 32 109 24 60 24 64 8 74 -33 18 -97 81 -126 124 l-30 43 -188 0
-188 0 -28 -40z m418 -12 c31 -41 54 -64 100 -105 l36 -32 -18 -43 c-11 -24
-25 -72 -31 -108 -14 -78 -19 -94 -25 -88 -8 8 21 159 38 200 l16 37 -39 31
c-21 17 -55 53 -75 80 l-37 50 -169 0 -169 0 -12 -25 c-6 -14 -16 -25 -21 -25
-6 0 -8 -3 -4 -6 3 -4 -20 -29 -52 -56 l-59 -49 19 -50 c11 -27 19 -62 18 -77
0 -18 -7 -6 -21 38 -11 36 -25 70 -30 77 -7 9 -2 20 19 37 15 14 31 26 35 26
4 0 28 27 54 60 l47 60 177 0 178 0 25 -32z m3 -85 c35 -38 64 -72 64 -78 -1
-36 -16 -36 -211 10 -107 25 -200 48 -206 50 -7 2 -32 -25 -56 -60 l-44 -65
-11 36 c-11 36 -10 37 51 105 l62 69 144 0 144 0 63 -67z m-346 -138 c-7 -8
-26 -15 -42 -15 -23 0 -29 -4 -24 -15 3 -8 2 -15 -3 -15 -8 0 -64 -81 -59 -86
7 -7 101 17 125 33 17 10 23 11 16 3 -23 -25 -14 -31 23 -15 22 9 42 12 51 6
12 -6 10 -12 -15 -30 -17 -12 -46 -28 -64 -37 -33 -15 -33 -15 33 -11 71 5
154 41 188 82 9 11 34 36 56 55 l38 35 -21 -32 c-32 -45 -119 -121 -171 -148
-65 -34 -28 -31 45 4 70 33 124 77 154 127 12 19 28 34 36 34 21 0 -40 -83
-92 -126 -97 -80 -268 -129 -306 -88 -9 11 -18 35 -20 54 l-3 35 -23 -35 c-12
-19 -22 -29 -22 -21 0 10 -6 8 -20 -7 -16 -16 -32 -22 -66 -22 -53 0 -55 -7
44 142 59 89 67 97 101 101 20 2 40 4 45 5 5 1 3 -5 -4 -13z m551 -82 c13 -16
12 -17 -3 -4 -10 7 -18 15 -18 17 0 8 8 3 21 -13z m-181 -34 c0 -26 -3 -30
-19 -26 -28 7 -56 -25 -43 -50 10 -19 6 -43 -8 -43 -5 0 -11 14 -15 31 -6 27
-2 36 36 75 24 24 44 44 46 44 2 0 3 -14 3 -31z m164 16 c19 -15 19 -15 -1
-15 -11 0 -23 7 -27 15 -7 19 3 19 28 0z m-27 -49 c-2 -5 -8 -11 -14 -13 -12
-4 -25 36 -16 50 7 12 35 -23 30 -37z m-47 4 c0 -5 -5 -10 -11 -10 -5 0 -7 5
-4 10 3 6 8 10 11 10 2 0 4 -4 4 -10z m-85 -51 l2 -22 -19 22 c-23 29 -24 45
-1 33 9 -6 17 -20 18 -33z m70 -6 c3 -13 2 -23 -3 -23 -11 0 -22 24 -22 48 0
21 15 5 25 -25z m35 23 c0 -11 -19 -15 -25 -6 -3 5 1 10 9 10 9 0 16 -2 16 -4z
m-205 -85 c-4 -18 -22 -52 -41 -77 -25 -33 -29 -42 -15 -34 23 12 71 78 71 97
0 17 7 16 62 -3 25 -8 54 -24 63 -34 16 -17 16 -22 1 -67 -16 -47 -70 -113
-127 -154 -32 -23 -43 -9 -22 31 7 14 13 33 13 43 0 23 15 52 54 102 34 45 18
34 -61 -42 -45 -43 -78 -119 -71 -165 2 -15 -6 -27 -28 -40 -53 -31 -64 -18
-64 73 0 62 -3 81 -15 85 -8 4 -15 14 -15 24 0 9 -16 28 -35 41 -19 13 -35 27
-35 30 0 3 15 13 33 22 17 9 47 26 66 39 29 19 34 19 28 5 -8 -21 3 -22 28 -3
11 8 25 12 31 9 7 -2 25 12 40 31 32 40 50 34 39 -13z m-165 -4 c-28 -25 -64
-35 -90 -24 -23 9 -20 11 35 22 33 7 62 13 65 14 2 0 -2 -5 -10 -12z m-180 -6
c0 -5 6 -11 14 -13 11 -2 9 -10 -10 -33 l-24 -30 0 43 c0 23 5 42 10 42 6 0
10 -4 10 -9z m-48 -112 c2 -10 10 -24 17 -33 10 -11 10 -16 2 -16 -19 0 -41
65 -40 117 l1 48 9 -50 c4 -27 10 -57 11 -66z m78 45 c-15 -40 -12 -53 15 -60
14 -3 25 -12 25 -19 0 -7 6 -16 13 -18 6 -3 2 -6 -10 -6 -14 -1 -23 5 -23 14
0 9 -12 18 -30 22 -43 8 -45 19 -15 58 31 42 38 44 25 9z m116 -116 c23 -11
25 -16 20 -48 -3 -19 -6 -48 -6 -63 0 -24 -3 -26 -19 -18 -21 12 -35 51 -18
51 7 1 1 7 -13 15 -14 8 -19 14 -12 15 6 0 12 9 12 21 0 16 5 19 23 15 14 -4
11 -1 -8 9 -36 17 -17 20 21 3z"/>
<path d="M560 354 c-19 -22 -47 -35 -105 -49 l-50 -13 40 -1 c37 -2 39 -3 21
-16 -17 -13 -18 -15 -3 -15 19 0 92 63 108 92 12 22 6 24 -11 2z"/>
<path d="M690 236 c-24 -26 -38 -46 -31 -46 10 0 9 -6 -4 -20 -18 -20 -18 -21
1 -14 42 15 89 78 82 110 -2 10 -17 1 -48 -30z"/>
<path d="M1746 803 c4 -16 9 -31 11 -35 9 -16 31 -7 47 18 10 14 27 29 39 34
16 6 6 9 -41 9 l-62 1 6 -27z"/>
<path d="M2002 772 c1 -46 6 -62 20 -71 14 -8 18 -8 18 1 0 6 3 9 6 5 3 -3 19
20 35 51 15 31 27 57 26 58 -1 1 -25 4 -54 8 l-52 7 1 -59z"/>
<path d="M3440 825 c0 -8 30 -65 34 -65 1 0 19 16 39 35 l36 35 -54 0 c-30 0
-55 -2 -55 -5z"/>
<path d="M2288 782 c-5 -57 1 -74 25 -70 18 3 74 76 76 101 1 4 -21 7 -48 7
l-49 0 -4 -38z"/>
<path d="M2880 813 c0 -1 5 -13 11 -27 17 -36 40 -41 61 -14 25 33 23 36 -27
40 -25 2 -45 2 -45 1z"/>
<path d="M3308 808 c-16 -5 -28 -14 -28 -19 0 -11 -93 -11 -142 0 l-38 9 0
-33 c0 -18 -3 -40 -6 -49 -5 -14 -3 -14 24 0 17 8 60 17 96 21 47 4 66 10 66
20 0 8 24 25 53 38 38 18 45 25 27 24 -14 0 -37 -5 -52 -11z"/>
<path d="M1430 785 c0 -8 2 -15 4 -15 2 0 6 7 10 15 3 8 1 15 -4 15 -6 0 -10
-7 -10 -15z"/>
<path d="M820 626 c0 -8 -3 -23 -7 -33 -6 -14 -1 -13 23 7 25 21 28 26 15 32
-25 10 -31 9 -31 -6z"/>
<path d="M161 574 c0 -11 3 -14 6 -6 3 7 2 16 -1 19 -3 4 -6 -2 -5 -13z"/>
<path d="M161 354 c0 -11 3 -14 6 -6 3 7 2 16 -1 19 -3 4 -6 -2 -5 -13z"/>
<path d="M2759 209 c-12 -24 -4 -36 27 -41 26 -4 29 1 20 29 -10 30 -34 36
-47 12z"/>
<path d="M1088 153 c7 -3 16 -2 19 1 4 3 -2 6 -13 5 -11 0 -14 -3 -6 -6z"/>
</g>
</svg>
